#N canvas 611 23 306 124 10;
#X obj 16 103 dac~;
#X msg 41 34 start;
#X obj 67 82 print ready;
#X obj 16 59 m4aPlayer;
#X msg 16 14 open /Users/mhroth/Desktop/gunship.mp3;
#X connect 1 0 3 0;
#X connect 3 0 0 0;
#X connect 3 1 0 1;
#X connect 3 3 2 0;
#X connect 4 0 3 0;
