#N canvas 92 132 1098 785 10;
#X msg 422 271 prime 0;
#X msg 458 223 open \$1;
#X obj 420 174 t b b a;
#X obj 458 198 symbol;
#X obj 363 406 r \$0-toLoad;
#X obj 439 311 s \$0-loadMessage;
#X obj 292 433 list prepend;
#X obj 292 477 route 0 1;
#X obj 292 455 list trim;
#X obj 284 279 s \$0-toLoad;
#X obj 294 383 r \$0-loadMessage;
#X msg 174 193 start;
#X obj 133 201 + 1;
#X obj 93 224 mod 2;
#X obj 296 682 c_xfade2 --------;
#X obj 94 255 ==;
#X msg 94 285 \$1 10;
#X obj 281 218 loadbang;
#X obj 95 27 inlet play_next;
#X obj 295 764 outlet~;
#X obj 392 766 outlet~;
#X obj 422 30 inlet load;
#X obj 678 758 outlet ready;
#X text 507 46 prepare for next loop;
#X text 142 52 start next loop;
#X text 505 72 dont do this too near start;
#X msg 994 170 pause;
#X msg 439 247 loop 0;
#X obj 748 30 inlet init;
#X msg 748 86 open \$1;
#X obj 748 61 symbol;
#X obj 747 113 t b a;
#X obj 204 571 print toDUP1;
#X obj 490 575 print toDUP2;
#X obj 173 672 print toFADE;
#X msg 283 246 0;
#X obj 93 202 f -1;
#X obj 96 144 t b b b;
#X obj 299 602 m4aPlayer;
#X obj 394 600 m4aPlayer;
#X msg 597 476 loop 0;
#X obj 967 40 inlet stop;
#X obj 995 139 t b b;
#X obj 639 671 line~;
#X msg 672 639 0 5;
#X obj 299 737 *~;
#X obj 391 740 *~;
#X msg 643 603 1 5;
#X connect 0 0 5 0;
#X connect 1 0 5 0;
#X connect 2 2 3 0;
#X connect 3 0 1 0;
#X connect 4 0 6 1;
#X connect 6 0 8 0;
#X connect 7 0 38 0;
#X connect 7 1 39 0;
#X connect 8 0 7 0;
#X connect 10 0 6 0;
#X connect 11 0 6 0;
#X connect 12 0 36 1;
#X connect 13 0 9 0;
#X connect 13 0 15 0;
#X connect 14 0 45 0;
#X connect 14 1 46 0;
#X connect 15 0 16 0;
#X connect 16 0 14 4;
#X connect 17 0 35 0;
#X connect 18 0 37 0;
#X connect 21 0 2 0;
#X connect 26 0 38 0;
#X connect 26 0 39 0;
#X connect 27 0 5 0;
#X connect 28 0 30 0;
#X connect 29 0 31 0;
#X connect 30 0 29 0;
#X connect 31 0 40 0;
#X connect 31 1 38 0;
#X connect 31 1 39 0;
#X connect 35 0 9 0;
#X connect 36 0 12 0;
#X connect 36 0 13 0;
#X connect 37 0 36 0;
#X connect 37 1 11 0;
#X connect 37 2 47 0;
#X connect 38 0 14 0;
#X connect 38 1 14 1;
#X connect 38 3 22 0;
#X connect 39 0 14 2;
#X connect 39 1 14 3;
#X connect 40 0 38 0;
#X connect 40 0 39 0;
#X connect 41 0 42 0;
#X connect 42 0 26 0;
#X connect 42 1 44 0;
#X connect 43 0 46 1;
#X connect 43 0 45 1;
#X connect 44 0 43 0;
#X connect 45 0 19 0;
#X connect 46 0 20 0;
#X connect 47 0 43 0;
