#N canvas 435 370 450 300 10;
#X obj 110 257 dac~;
#X obj 111 27 r \$1-tick;
#X msg 112 122 start;
#X obj 111 213 musicPlayer;
#X msg 155 122 ../music/loop.m4a;
#X msg 155 183 ../music/loop.m4a;
#X obj 154 160 loadbang;
#X obj 111 71 sel 0 32;
#X obj 111 49 mod 64;
#X connect 1 0 8 0;
#X connect 2 0 3 0;
#X connect 3 0 0 0;
#X connect 3 1 0 1;
#X connect 4 0 3 1;
#X connect 5 0 3 2;
#X connect 6 0 5 0;
#X connect 7 0 2 0;
#X connect 7 1 4 0;
#X connect 8 0 7 0;
