#N canvas 122 45 1076 861 10;
#X obj 213 706 s \$1-tick;
#X obj 250 426 + 1;
#X obj 217 52 loadbang;
#X obj 254 92 \$2;
#X obj 254 232 /;
#X msg 254 212 60000 \$1;
#X obj 240 486 mod 32;
#X obj 240 506 sel 0;
#X obj 240 566 f 0;
#X obj 270 566 + 1;
#X obj 240 676 s \$1-bar;
#X obj 352 332 s \$1-TIMEBASE-ms;
#X obj 254 152 t f f;
#X obj 255 536 r \$1-TIMEBASE-resetBarCounter;
#X obj 254 272 t f f;
#X obj 214 377 metro \$2;
#X obj 254 313 change -100;
#X obj 352 310 f;
#X obj 368 281 r \$1-callTimebase;
#X obj 213 399 t b b;
#X obj 290 430 s \$1-TIMEBASE-bangs;
#X obj 352 216 r \$1-tick;
#X obj 352 238 mod 4;
#X obj 352 260 sel 0;
#X obj 254 252 / 8;
#X obj 319 596 s \$1-barTransmitter;
#X obj 255 339 f;
#X obj 281 180 s \$1-TIMEBASE-bpm;
#X obj 211 428 f 0;
#X obj 126 570 s DESKTOPtick;
#X obj 443 632 s \$1-pretick;
#X obj 213 456 t f f f;
#X obj 240 588 t f f;
#X obj 311 677 s \$1-prebar;
#X connect 1 0 28 1;
#X connect 2 0 3 0;
#X connect 2 0 15 0;
#X connect 3 0 12 0;
#X connect 4 0 24 0;
#X connect 5 0 4 0;
#X connect 6 0 7 0;
#X connect 7 0 8 0;
#X connect 7 0 25 0;
#X connect 8 0 9 0;
#X connect 8 0 32 0;
#X connect 9 0 8 1;
#X connect 12 0 5 0;
#X connect 12 1 27 0;
#X connect 13 0 8 1;
#X connect 14 0 16 0;
#X connect 14 1 17 0;
#X connect 15 0 19 0;
#X connect 16 0 26 0;
#X connect 17 0 11 0;
#X connect 18 0 17 0;
#X connect 19 0 28 0;
#X connect 19 1 20 0;
#X connect 21 0 22 0;
#X connect 22 0 23 0;
#X connect 23 0 17 0;
#X connect 24 0 14 0;
#X connect 26 0 15 1;
#X connect 28 0 1 0;
#X connect 28 0 31 0;
#X connect 31 0 0 0;
#X connect 31 0 29 0;
#X connect 31 1 6 0;
#X connect 31 2 30 0;
#X connect 32 0 10 0;
#X connect 32 1 33 0;
